<?xml version="1.0" encoding="UTF-8" standalone="no"?>
<svg
   xmlns:dc="http://purl.org/dc/elements/1.1/"
   xmlns:cc="http://creativecommons.org/ns#"
   xmlns:rdf="http://www.w3.org/1999/02/22-rdf-syntax-ns#"
   xmlns:svg="http://www.w3.org/2000/svg"
   xmlns="http://www.w3.org/2000/svg"
   viewBox="0 0 35.133732 36.871468"
   height="36.871468"
   width="35.133732"
   xml:space="preserve"
   id="svg2"
   version="1.1"><metadata
     id="metadata8"><rdf:RDF><cc:Work
         rdf:about=""><dc:format>image/svg+xml</dc:format><dc:type
           rdf:resource="http://purl.org/dc/dcmitype/StillImage" /></cc:Work></rdf:RDF></metadata><defs
     id="defs6"><clipPath
       id="clipPath18"
       clipPathUnits="userSpaceOnUse"><path
         id="path16"
         d="M 0,27.654 H 26.35 V 0 H 0 Z" /></clipPath></defs><g
     transform="matrix(1.3333333,0,0,-1.3333333,0,36.871467)"
     id="g10"><g
       id="g12"><g
         clip-path="url(#clipPath18)"
         id="g14"><g
           transform="translate(13.1506,22.7358)"
           id="g20"><path
             id="path22"
             style="fill:#ffffff;fill-opacity:1;fill-rule:nonzero;stroke:none"
             d="m 0,0 c -4.901,-0.015 -8.899,-4.042 -8.877,-8.939 0.023,-4.873 4.027,-8.864 8.897,-8.867 4.891,-0.003 8.915,4.025 8.908,8.918 C 8.922,-3.993 4.896,0.014 0,0 m -0.159,-22.736 c -0.891,1.196 -1.805,2.376 -2.659,3.597 -0.272,0.389 -0.509,0.399 -0.9,0.268 -1.239,-0.416 -2.487,-0.806 -3.734,-1.198 -0.632,-0.199 -0.835,-0.056 -0.839,0.602 -0.009,1.31 -0.026,2.621 0.009,3.931 0.012,0.458 -0.153,0.642 -0.568,0.77 -1.249,0.384 -2.487,0.803 -3.727,1.216 -0.645,0.216 -0.729,0.475 -0.327,1.036 0.775,1.08 1.55,2.161 2.352,3.222 0.229,0.302 0.213,0.501 -0.008,0.793 -0.787,1.046 -1.549,2.111 -2.314,3.174 -0.448,0.621 -0.368,0.86 0.36,1.103 1.26,0.419 2.517,0.845 3.785,1.238 0.335,0.104 0.447,0.257 0.442,0.603 -0.019,1.31 -0.011,2.621 -0.006,3.932 0.003,0.804 0.187,0.932 0.973,0.682 1.245,-0.397 2.491,-0.791 3.73,-1.205 0.32,-0.107 0.505,-0.06 0.709,0.232 0.761,1.09 1.551,2.16 2.339,3.231 0.42,0.57 0.715,0.569 1.136,-0.003 C 1.382,3.417 2.172,2.348 2.933,1.257 3.139,0.963 3.325,0.923 3.643,1.029 4.902,1.449 6.167,1.851 7.433,2.252 8.14,2.477 8.339,2.337 8.342,1.609 8.348,0.299 8.359,-1.012 8.334,-2.322 8.326,-2.721 8.46,-2.889 8.839,-3.005 c 1.268,-0.39 2.524,-0.819 3.783,-1.24 0.647,-0.217 0.736,-0.478 0.34,-1.031 -0.774,-1.081 -1.552,-2.161 -2.352,-3.223 -0.22,-0.293 -0.235,-0.491 -0.006,-0.793 0.802,-1.061 1.576,-2.142 2.351,-3.223 0.401,-0.559 0.316,-0.82 -0.327,-1.035 -1.24,-0.413 -2.479,-0.832 -3.728,-1.216 -0.415,-0.128 -0.58,-0.313 -0.567,-0.771 0.035,-1.289 0.017,-2.579 0.011,-3.869 -0.003,-0.735 -0.194,-0.87 -0.901,-0.647 -1.207,0.381 -2.422,0.742 -3.613,1.168 -0.494,0.177 -0.744,0.067 -1.037,-0.35 -0.832,-1.187 -1.718,-2.336 -2.583,-3.501 z" /></g><g
           transform="translate(19.8713,13.5547)"
           id="g24"><path
             id="path26"
             style="fill:#ffffff;fill-opacity:1;fill-rule:nonzero;stroke:none"
             d="m 0,0 c -0.086,-3.569 -3.189,-6.579 -7.01,-6.424 -3.588,0.146 -6.743,3.317 -6.37,7.376 0.334,3.638 3.57,6.317 7.321,6.009 C -2.544,6.674 0.284,3.424 0,0" /></g></g></g></g></svg>