<?xml version="1.0" encoding="utf-8"?>
<!-- Generator: Adobe Illustrator 22.0.1, SVG Export Plug-In . SVG Version: 6.00 Build 0)  -->
<svg version="1.1"
	 id="svg2" xmlns:cc="http://creativecommons.org/ns#" xmlns:dc="http://purl.org/dc/elements/1.1/" xmlns:rdf="http://www.w3.org/1999/02/22-rdf-syntax-ns#" xmlns:svg="http://www.w3.org/2000/svg"
	 xmlns="http://www.w3.org/2000/svg" xmlns:xlink="http://www.w3.org/1999/xlink" x="0px" y="0px" viewBox="0 0 36.9 36.9"
	 style="enable-background:new 0 0 36.9 36.9;" xml:space="preserve">
<style type="text/css">
	.st0{clip-path:url(#SVGID_2_);}
	.st1{fill:#FFFFFF;}
</style>
<g id="g10" transform="matrix(1.3333333,0,0,-1.3333333,0,36.871467)">
	<g id="g12">
		<g>
			<defs>
				<rect id="SVGID_1_" x="-4.4" y="-4.6" width="35.1" height="36.9"/>
			</defs>
			<clipPath id="SVGID_2_">
				<use xlink:href="#SVGID_1_"  style="overflow:visible;"/>
			</clipPath>
			<g id="g14" class="st0">
				<g id="g20" transform="translate(13.1506,22.7358)">
					<path id="path22" class="st1" d="M0.7,0c-5.1,0-9.3-4-9.3-8.9c0-4.9,4.2-8.9,9.3-8.9c5.1,0,9.4,4,9.3,8.9C10-4,5.8,0,0.7,0
						 M0.5-22.7c-0.9,1.2-1.9,2.4-2.8,3.6c-0.3,0.4-0.5,0.4-0.9,0.3c-1.3-0.4-2.6-0.8-3.9-1.2c-0.7-0.2-0.9-0.1-0.9,0.6
						c0,1.3,0,2.6,0,3.9c0,0.5-0.2,0.6-0.6,0.8c-1.3,0.4-2.6,0.8-3.9,1.2c-0.7,0.2-0.8,0.5-0.3,1c0.8,1.1,1.6,2.2,2.5,3.2
						c0.2,0.3,0.2,0.5,0,0.8c-0.8,1-1.6,2.1-2.4,3.2c-0.5,0.6-0.4,0.9,0.4,1.1c1.3,0.4,2.6,0.8,4,1.2C-8.2-2.9-8-2.7-8-2.4
						c0,1.3,0,2.6,0,3.9c0,0.8,0.2,0.9,1,0.7C-5.7,1.8-4.4,1.4-3.1,1C-2.8,0.9-2.6,1-2.4,1.3c0.8,1.1,1.6,2.2,2.5,3.2
						c0.4,0.6,0.8,0.6,1.2,0c0.8-1.1,1.7-2.1,2.5-3.2C3.9,1,4.1,0.9,4.5,1c1.3,0.4,2.6,0.8,4,1.2c0.7,0.2,1,0.1,1-0.6
						c0-1.3,0-2.6,0-3.9c0-0.4,0.1-0.6,0.5-0.7c1.3-0.4,2.6-0.8,4-1.2c0.7-0.2,0.8-0.5,0.4-1c-0.8-1.1-1.6-2.2-2.5-3.2
						c-0.2-0.3-0.2-0.5,0-0.8c0.8-1.1,1.7-2.1,2.5-3.2c0.4-0.6,0.3-0.8-0.3-1c-1.3-0.4-2.6-0.8-3.9-1.2c-0.4-0.1-0.6-0.3-0.6-0.8
						c0-1.3,0-2.6,0-3.9c0-0.7-0.2-0.9-0.9-0.6c-1.3,0.4-2.5,0.7-3.8,1.2c-0.5,0.2-0.8,0.1-1.1-0.4c-0.9-1.2-1.8-2.3-2.7-3.5H0.5z"
						/>
				</g>
				<g id="g24" transform="translate(19.8713,13.5547)">
					<path id="path26" class="st1" d="M1,0C0.9-3.6-2.4-6.6-6.4-6.4c-3.8,0.1-7.1,3.3-6.7,7.4c0.4,3.6,3.7,6.3,7.7,6
						C-1.7,6.7,1.3,3.4,1,0"/>
				</g>
			</g>
		</g>
	</g>
</g>
</svg>
